# xmcd
#
# Track frame offsets:
#	150
#	14874
#	31318
#	48700
#	66353
#	88034
#	113525
#	131053
#	145633
#	161392
#	178309
#	191706
#	208727
#	224093
#	242096
#	259082
#	272464
#	291356
#
# Disc length: 4087 seconds
#
# Revision: 1
# Processed by: cddbd v1.4PL0 Copyright (c) Steve Scherf et al.
# Submitted via: audiograbber 1.82.01
#
DISCID=1f0ff512
DTITLE=Various Artist - Saloon Tunes 59
DYEAR=2003
DGENRE=Country
TTITLE0=Pritchett, Aaron - Consider This
TTITLE1=Jackson, Alan - That'd Be Right
TTITLE2=Krauss, Alison and Union Station - New Favourite
TTITLE3=Amey, Colin - What Would I Do Without You
TTITLE4=Morgan, Craig - Almost Home
TTITLE5=Dixie Chicks - Travelin' Soldier
TTITLE6=Walker, Doc - Call Me A Foll
TTITLE7=Williams, Hank Jr - Outdoor Lovin' Man
TTITLE8=Vautour, J.R. - ThisTime
TTITLE9=Andrews, Jessica - There's More To Me Than You
TTITLE10=Jenai - Cool Me Down
TTITLE11=Messina, Jo Dee - Was That My Life
TTITLE12=McBride and The Ride - Amarillo Sky
TTITLE13=Montgomery Gentry - Speed
TTITLE14=Evans, Sara - Why Should I Care
TTITLE15=Cochran, Tammy - Love Won't Let Me
TTITLE16=Tebey - We Shook Hands (Man To Man)
TTITLE17=Gill, Vince - Next Big Thing
EXTD=
EXTT0=
EXTT1=
EXTT2=
EXTT3=
EXTT4=
EXTT5=
EXTT6=
EXTT7=
EXTT8=
EXTT9=
EXTT10=
EXTT11=
EXTT12=
EXTT13=
EXTT14=
EXTT15=
EXTT16=
EXTT17=
PLAYORDER=
